<?xml version="1.0" encoding="UTF-8" standalone="no"?>
<!-- Created with Inkscape (http://www.inkscape.org/) -->

<svg
   width="297mm"
   height="210mm"
   viewBox="0 0 297 210"
   version="1.1"
   id="svg5"
   inkscape:version="1.1.1 (eb90963e84, 2021-10-02)"
   sodipodi:docname="esquema.svg"
   inkscape:export-filename="/home/alexs/Escritorio/MECATRONICA/esquema.png"
   inkscape:export-xdpi="96"
   inkscape:export-ydpi="96"
   xmlns:inkscape="http://www.inkscape.org/namespaces/inkscape"
   xmlns:sodipodi="http://sodipodi.sourceforge.net/DTD/sodipodi-0.dtd"
   xmlns="http://www.w3.org/2000/svg"
   xmlns:svg="http://www.w3.org/2000/svg">
  <sodipodi:namedview
     id="namedview7"
     pagecolor="#ffffff"
     bordercolor="#666666"
     borderopacity="1.0"
     inkscape:pageshadow="2"
     inkscape:pageopacity="0.0"
     inkscape:pagecheckerboard="0"
     inkscape:document-units="mm"
     showgrid="false"
     inkscape:zoom="0.53165938"
     inkscape:cx="184.32855"
     inkscape:cy="330.09857"
     inkscape:window-width="1848"
     inkscape:window-height="1016"
     inkscape:window-x="72"
     inkscape:window-y="27"
     inkscape:window-maximized="1"
     inkscape:current-layer="layer1" />
  <defs
     id="defs2">
    <rect
       x="488.26047"
       y="536.23865"
       width="232.56398"
       height="83.459641"
       id="rect62996" />
  </defs>
  <g
     inkscape:label="Capa 1"
     inkscape:groupmode="layer"
     id="layer1">
    <rect
       style="opacity:1;fill:#b3b3b3;stroke:#98b5ab;stroke-width:4.52305;stroke-linecap:square;stroke-opacity:1"
       id="rect31"
       width="278.58752"
       height="113.55489"
       x="7.8970098"
       y="54.314171" />
    <g
       aria-label="➥"
       transform="matrix(0.5777923,-0.27717757,0.31050358,0.64726221,74.432132,11.591165)"
       id="text8772-7-2-6"
       style="font-size:89.0001px;line-height:1.25;fill:#d1a086;stroke:#e7bca9;stroke-width:2.225">
      <path
         d="m 175.31154,216.51135 v -20.8594 q 0,2.08594 0.78223,3.9546 0.78223,1.8252 2.30323,3.43311 1.52099,1.43408 3.38965,2.25977 1.8252,0.78222 2.34668,0.78222 h 37.28618 v -8.6045 l 19.0342,19.0342 -19.0342,19.0342 v -8.6045 h -18.90383 q -18.90383,0 -20.72903,-0.78223 -1.86866,-0.82568 -3.38965,-2.25976 -1.521,-1.60792 -2.30323,-3.43311 -0.78223,-1.86866 -0.78223,-3.9546 z"
         id="path1105" />
    </g>
    <g
       aria-label="➥"
       transform="matrix(0.59991115,0.22533965,-0.25243299,0.6720405,74.432132,11.591165)"
       id="text8772-7-2-6-9"
       style="font-size:89.0001px;line-height:1.25;fill:#d1a086;stroke:#e7bca9;stroke-width:2.225">
      <path
         d="M 305.96351,67.529968 V 46.670569 q 0,2.08594 0.78222,3.954595 0.78223,1.825197 2.30323,3.433109 1.521,1.434084 3.38965,2.259768 1.8252,0.782228 2.34668,0.782228 h 37.28618 v -8.604502 l 19.0342,19.034201 -19.0342,19.034201 v -8.604502 h -18.90383 q -18.90383,0 -20.72903,-0.782228 -1.86865,-0.825684 -3.38965,-2.259768 -1.521,-1.607912 -2.30323,-3.433109 -0.78222,-1.868654 -0.78222,-3.954594 z"
         id="path1084" />
    </g>
    <g
       aria-label="➥"
       transform="matrix(0.64083052,-0.00275446,0.00308565,0.71787974,74.432132,11.591165)"
       id="text8772-7-2"
       style="font-size:89.0001px;line-height:1.25;fill:#9dd193;stroke:#6fd82d;stroke-width:2.225">
      <path
         d="m -97.985788,140.82992 v -20.85939 q 0,2.08594 0.782227,3.95459 0.782227,1.8252 2.303225,3.43311 1.520998,1.43408 3.389652,2.25977 1.825198,0.78223 2.346683,0.78223 h 37.286174 v -8.60451 l 19.034201,19.0342 -19.034201,19.03421 v -8.60451 h -18.90383 q -18.903829,0 -20.729027,-0.78222 -1.868654,-0.82569 -3.389652,-2.25977 -1.520998,-1.60791 -2.303225,-3.43311 -0.782227,-1.86866 -0.782227,-3.9546 z"
         id="path961" />
    </g>
    <text
       xml:space="preserve"
       style="font-style:normal;font-weight:normal;font-size:8.9781px;line-height:1.25;font-family:sans-serif;fill:#000000;fill-opacity:1;stroke:none;stroke-width:0.224454"
       x="20.284342"
       y="116.80016"
       id="text29024-0"
       transform="rotate(0.03396326)"><tspan
         sodipodi:role="line"
         id="tspan29022-9"
         style="stroke-width:0.224454"
         x="20.284342"
         y="116.80016">HMI</tspan></text>
    <rect
       style="opacity:1;fill:#0000ff;stroke:#4e73e0;stroke-width:5.24822;stroke-linecap:square;stroke-opacity:1"
       id="rect3439"
       width="166.20081"
       height="78.359489"
       x="66.294159"
       y="72.694588" />
    <g
       aria-label="➥"
       transform="matrix(0.61381825,0.18411536,-0.20625219,0.68761975,74.432132,11.591165)"
       id="text8772"
       style="font-size:89.0001px;line-height:1.25;fill:#9dd193;stroke:#6fd82d;stroke-width:2.225">
      <path
         d="M -61.447756,106.39165 V 85.532249 q 0,2.085939 0.782228,3.954594 0.782227,1.825197 2.303225,3.433109 1.520998,1.434084 3.389652,2.259768 1.825197,0.782228 2.346682,0.782228 h 37.286175 v -8.604502 l 19.0342006,19.034204 -19.0342006,19.0342 v -8.6045 h -18.90383 q -18.90383,0 -20.729027,-0.78223 -1.868654,-0.82569 -3.389652,-2.25977 -1.520998,-1.60791 -2.303225,-3.43311 -0.782228,-1.86865 -0.782228,-3.95459 z"
         id="path921" />
    </g>
    <g
       aria-label="➥"
       transform="matrix(0.53428767,-0.35384742,0.39639173,0.59852693,74.432132,11.591165)"
       id="text8772-7"
       style="font-size:89.0001px;line-height:1.25;fill:#9dd193;stroke:#6fd82d;stroke-width:2.225">
      <path
         d="m -197.07363,131.71144 v -20.8594 q 0,2.08594 0.78222,3.9546 0.78223,1.82519 2.30323,3.43311 1.521,1.43408 3.38965,2.25976 1.8252,0.78223 2.34668,0.78223 h 37.28618 v -8.6045 l 19.0342,19.0342 -19.0342,19.0342 v -8.6045 h -18.90383 q -18.90383,0 -20.72903,-0.78223 -1.86865,-0.82568 -3.38965,-2.25977 -1.521,-1.60791 -2.30323,-3.43311 -0.78222,-1.86865 -0.78222,-3.95459 z"
         id="path1063" />
    </g>
    <text
       xml:space="preserve"
       style="font-style:normal;font-weight:normal;font-size:6.6662px;line-height:1.25;font-family:sans-serif;fill:#000000;fill-opacity:1;stroke:none;stroke-width:0.166655"
       x="37.267132"
       y="66.977089"
       id="text29024"
       transform="rotate(17.558632)"><tspan
         sodipodi:role="line"
         id="tspan29022"
         style="stroke-width:0.166655"
         x="37.267132"
         y="66.977089">Obstáculos</tspan></text>
    <text
       xml:space="preserve"
       style="font-style:normal;font-weight:normal;font-size:7.12344px;line-height:1.25;font-family:sans-serif;fill:#000000;fill-opacity:1;stroke:none;stroke-width:0.178085"
       x="-64.989311"
       y="147.90921"
       id="text33330"
       transform="rotate(-32.162506)"><tspan
         sodipodi:role="line"
         id="tspan33328"
         style="stroke-width:0.178085"
         x="-64.989311"
         y="147.90921">Imágenes</tspan></text>
    <path
       sodipodi:type="star"
       style="opacity:0.8;fill:#bc6b6c;fill-opacity:1;stroke:#f3060c;stroke-width:7.55906;stroke-linecap:square;stroke-opacity:1"
       id="path39258"
       inkscape:flatsided="true"
       sodipodi:sides="6"
       sodipodi:cx="218.20886"
       sodipodi:cy="427.57138"
       sodipodi:r1="29.100172"
       sodipodi:r2="25.201488"
       sodipodi:arg1="1.0434948"
       sodipodi:arg2="1.5670936"
       inkscape:rounded="0"
       inkscape:randomized="0"
       d="m 232.85216,452.71882 -29.09997,0.10775 -14.6433,-25.14744 14.45667,-25.25519 29.09997,-0.10775 14.6433,25.14744 z"
       transform="matrix(0.41138443,0,0,0.41138443,-1.7013287,-83.384202)"
       inkscape:transform-center-y="-1.2077351e-05"
       inkscape:transform-center-x="6.8090286e-06" />
    <path
       sodipodi:type="star"
       style="opacity:0.8;fill:#e0bf3c;fill-opacity:1;stroke:#fff500;stroke-width:7.55906;stroke-linecap:square;stroke-opacity:1"
       id="path39258-0"
       inkscape:flatsided="true"
       sodipodi:sides="6"
       sodipodi:cx="218.20886"
       sodipodi:cy="427.57138"
       sodipodi:r1="29.100172"
       sodipodi:r2="25.201488"
       sodipodi:arg1="1.0434948"
       sodipodi:arg2="1.5670936"
       inkscape:rounded="0"
       inkscape:randomized="0"
       transform="matrix(0.47305045,0,0,0.47305045,101.42678,-90.127042)"
       inkscape:transform-center-y="-4.2356093e-06"
       d="m 232.85216,452.71882 -29.09997,0.10775 -14.6433,-25.14744 14.45667,-25.25519 29.09997,-0.10775 14.6433,25.14744 z"
       inkscape:transform-center-x="-8.6579012e-06" />
    <text
       xml:space="preserve"
       style="font-style:normal;font-weight:normal;font-size:5.84135px;line-height:1.25;font-family:sans-serif;fill:#000000;fill-opacity:1;stroke:none;stroke-width:0.146034"
       x="99.01104"
       y="75.55014"
       id="text41524"
       transform="scale(0.79636013,1.2557133)"><tspan
         sodipodi:role="line"
         id="tspan41522"
         style="stroke-width:0.146034"
         x="99.01104"
         y="75.55014">Cámara</tspan></text>
    <path
       sodipodi:type="star"
       style="opacity:0.8;fill:#bc6b6c;fill-opacity:1;stroke:#f3060c;stroke-width:7.55906;stroke-linecap:square;stroke-opacity:1"
       id="path39258-3"
       inkscape:flatsided="true"
       sodipodi:sides="6"
       sodipodi:cx="218.20886"
       sodipodi:cy="427.57138"
       sodipodi:r1="29.100172"
       sodipodi:r2="25.201488"
       sodipodi:arg1="1.0434948"
       sodipodi:arg2="1.5670936"
       inkscape:rounded="0"
       inkscape:randomized="0"
       transform="matrix(0.41679034,0,0,0.41679034,-3.2539997,-47.681129)"
       inkscape:transform-center-y="-8.9195926e-06"
       d="m 232.85216,452.71882 -29.09997,0.10775 -14.6433,-25.14744 14.45667,-25.25519 29.09997,-0.10775 14.6433,25.14744 z"
       inkscape:transform-center-x="2.1245497e-06" />
    <path
       sodipodi:type="star"
       style="opacity:0.8;fill:#bc6b6c;fill-opacity:1;stroke:#f3060c;stroke-width:7.55906;stroke-linecap:square;stroke-opacity:1"
       id="path39258-5"
       inkscape:flatsided="true"
       sodipodi:sides="6"
       sodipodi:cx="218.20886"
       sodipodi:cy="427.57138"
       sodipodi:r1="29.100172"
       sodipodi:r2="25.201488"
       sodipodi:arg1="1.0434948"
       sodipodi:arg2="1.5670936"
       inkscape:rounded="0"
       inkscape:randomized="0"
       transform="matrix(0.41970791,0,0,0.41970791,19.885874,-67.745453)"
       inkscape:transform-center-y="-2.2243558e-06"
       d="m 232.85216,452.71882 -29.09997,0.10775 -14.6433,-25.14744 14.45667,-25.25519 29.09997,-0.10775 14.6433,25.14744 z"
       inkscape:transform-center-x="-3.0773283e-06" />
    <text
       xml:space="preserve"
       style="font-style:normal;font-weight:normal;font-size:4.69122px;line-height:1.25;font-family:sans-serif;fill:#000000;fill-opacity:1;stroke:none;stroke-width:0.117281"
       x="112.80177"
       y="91.368736"
       id="text41524-6"
       transform="scale(0.68634749,1.4569879)"><tspan
         sodipodi:role="line"
         id="tspan41522-2"
         style="stroke-width:0.117281"
         x="112.80177"
         y="91.368736">Ultrasonidos</tspan></text>
    <text
       xml:space="preserve"
       style="font-style:normal;font-weight:normal;font-size:5.18338px;line-height:1.25;font-family:sans-serif;fill:#000000;fill-opacity:1;stroke:none;stroke-width:0.129586"
       x="127.35918"
       y="90.832794"
       id="text41524-9"
       transform="scale(0.79636013,1.2557133)"><tspan
         sodipodi:role="line"
         id="tspan41522-1"
         style="stroke-width:0.129586"
         x="127.35918"
         y="90.832794">Bluetooth</tspan></text>
    <text
       xml:space="preserve"
       style="font-style:normal;font-weight:normal;font-size:6.35144px;line-height:1.25;font-family:sans-serif;fill:#000000;fill-opacity:1;stroke:none;stroke-width:0.158787"
       x="244.0779"
       y="91.495346"
       id="text41524-9-6"
       transform="scale(0.79636013,1.2557133)"><tspan
         sodipodi:role="line"
         id="tspan41522-1-2"
         style="stroke-width:0.158787"
         x="244.0779"
         y="91.495346">Motores</tspan></text>
    <rect
       style="opacity:0.8;fill:#968181;fill-opacity:1;stroke:#0e0c0c;stroke-width:3.42657;stroke-linecap:square;stroke-opacity:1"
       id="rect56274"
       width="22.150482"
       height="21.911646"
       x="144.00758"
       y="100.33324" />
    <text
       xml:space="preserve"
       style="font-style:normal;font-weight:normal;font-size:3.84116px;line-height:1.25;font-family:sans-serif;text-align:center;text-anchor:middle;fill:#000000;fill-opacity:1;stroke:none;stroke-width:0.0960282"
       x="279.14114"
       y="61.168205"
       id="text59084"
       transform="scale(0.55609518,1.7982533)"><tspan
         sodipodi:role="line"
         id="tspan59082"
         style="text-align:center;text-anchor:middle;stroke-width:0.0960282"
         x="279.14114"
         y="61.168205">Microprocesador</tspan><tspan
         sodipodi:role="line"
         style="text-align:center;text-anchor:middle;stroke-width:0.0960282"
         x="279.14114"
         y="65.969658"
         id="tspan59086">Arduino</tspan></text>
    <text
       xml:space="preserve"
       transform="scale(0.26458333)"
       id="text62994"
       style="font-style:normal;font-weight:normal;font-size:40px;line-height:1.25;font-family:sans-serif;white-space:pre;shape-inside:url(#rect62996);fill:#000000;fill-opacity:1;stroke:none" />
    <text
       xml:space="preserve"
       style="font-style:normal;font-weight:normal;font-size:18.132px;line-height:1.25;font-family:sans-serif;fill:#000000;fill-opacity:1;stroke:none;stroke-width:0.453305"
       x="125.41448"
       y="117.26964"
       id="text72762"><tspan
         sodipodi:role="line"
         id="tspan72760"
         style="fill:#000000;fill-opacity:1;stroke-width:0.453305"
         x="125.41448"
         y="117.26964">→</tspan></text>
    <text
       xml:space="preserve"
       style="font-style:normal;font-weight:normal;font-size:18.132px;line-height:1.25;font-family:sans-serif;fill:#000000;fill-opacity:1;stroke:none;stroke-width:0.453305"
       x="168.61182"
       y="117.92948"
       id="text72762-3"><tspan
         sodipodi:role="line"
         id="tspan72760-6"
         style="fill:#000000;fill-opacity:1;stroke-width:0.453305"
         x="168.61182"
         y="117.92948">→</tspan></text>
    <text
       xml:space="preserve"
       style="font-style:normal;font-weight:normal;font-size:6.03685px;line-height:1.25;font-family:sans-serif;fill:#000000;fill-opacity:1;stroke:none;stroke-width:0.150921"
       x="269.93546"
       y="34.558132"
       id="text29024-02"
       transform="matrix(0.9452665,0.35739004,-0.36764382,0.91890251,0,0)"><tspan
         sodipodi:role="line"
         id="tspan29022-3"
         style="stroke-width:0.150921"
         x="269.93546"
         y="34.558132">Movimiento</tspan></text>
    <text
       xml:space="preserve"
       style="font-style:normal;font-weight:normal;font-size:6.6662px;line-height:1.25;font-family:sans-serif;fill:#000000;fill-opacity:1;stroke:none;stroke-width:0.166655"
       x="184.38924"
       y="193.22704"
       id="text29024-7"
       transform="rotate(-23.860224)"
       inkscape:transform-center-x="-29.790145"
       inkscape:transform-center-y="9.8947788"><tspan
         sodipodi:role="line"
         id="tspan29022-5"
         style="stroke-width:0.166655"
         x="184.38924"
         y="193.22704">Esquivar</tspan></text>
    <text
       xml:space="preserve"
       style="font-style:normal;font-weight:normal;font-size:7.25618px;line-height:1.25;font-family:sans-serif;fill:#000000;fill-opacity:1;stroke:none;stroke-width:0.181407"
       x="91.036011"
       y="186.95137"
       id="text90568"
       transform="scale(1.2256678,0.81588176)"><tspan
         sodipodi:role="line"
         id="tspan90566"
         style="stroke-width:0.181407"
         x="91.036011"
         y="186.95137">Robot Explorador</tspan></text>
    <text
       xml:space="preserve"
       style="font-style:normal;font-weight:normal;font-size:7.25618px;line-height:1.25;font-family:sans-serif;fill:#000000;fill-opacity:1;stroke:none;stroke-width:0.181407"
       x="106.9394"
       y="69.275154"
       id="text90568-9"
       transform="scale(1.2256678,0.81588176)"><tspan
         sodipodi:role="line"
         id="tspan90566-2"
         style="stroke-width:0.181407"
         x="106.9394"
         y="69.275154">Entorno</tspan></text>
  </g>
</svg>
